<svg xmlns="http://www.w3.org/2000/svg" width="430" height="430" fill="none" viewBox="0 0 430 430"><g stroke-linejoin="round" stroke-width="12"><path stroke="#121331" d="M400 260v60c0 16.569-13.431 30-30 30H60c-16.568 0-30-13.431-30-30v-60"/><path stroke="#121331" d="M30 110c0-16.568 13.432-30 30-30h310c16.569 0 30 13.432 30 30v160c0 16.569-13.431 30-30 30H60c-16.568 0-30-13.431-30-30z"/><path stroke="#08a88a" stroke-linecap="round" d="M170.667 160v60l-45-60v60m-23-60H66v60h36.667m-5.348-29.992L66 190m233.667-30H263v60h36.667m-5.348-29.992L263 190m101.167 30-15.833-23.333m-26.667 0h25c9.205 0 16.667-7.462 16.667-16.667v-3.333c0-9.205-7.462-16.667-16.667-16.667h-25v60M241 160h-48.333m24.167 0v60"/></g></svg>